rec1_001.mot
nRows=10
nColumns=19

name rec1_001.mot
datacolumns 19
datarows 10
range 15.0001165006 15.0901168434
endheader
time	ground_force_vx	ground_force_vy	ground_force_vz	ground_force_px	ground_force_py	ground_force_pz	1_ground_force_vx	1_ground_force_vy	1_ground_force_vz	1_ground_force_px	1_ground_force_py	1_ground_force_pz	ground_torque_x	ground_torque_y	ground_torque_z	1_ground_torque_x	1_ground_torque_y	1_ground_torque_z	
       15.0001165006	       -0.5152182016	        5.3552548462	       -0.3045332073	        0.1008656358	       -0.0180000000	        0.1599999477	       50.0641313257	      688.1400690685	       48.9899600435	        0.1402742399	       -0.0180000000	       -0.1247927437	        1.7499306032	       -0.5268611663	        5.3242173452	     -298.8171852420	      -22.4091030677	      579.0991874715	
       15.0101162586	       -0.4076503279	        6.0099523942	       -0.2754300545	        0.1006728443	       -0.0180000000	        0.1599999316	       55.1279167096	      701.3391485410	       50.5171265364	        0.1314667906	       -0.0180000000	       -0.1250463941	        1.7477667431	       -0.5336751810	        4.6536627943	     -304.3610301546	      -21.3563482683	      584.0837992563	
       15.0201165768	       -0.2599142993	        6.5417565438	       -0.3586406918	        0.1004463257	       -0.0180000000	        0.1599999640	       60.6232212916	      713.6738468030	       51.1423993982	        0.1225108225	       -0.0180000000	       -0.1251475016	        1.7467729072	       -0.4338227728	        3.9503239972	     -309.6403018524	      -19.3025830301	      588.0369229887	
       15.0301164148	       -0.1155261572	        6.9117734238	       -0.4220594376	        0.1002221350	       -0.0180000000	        0.1600000011	       66.6495116561	      723.7809123220	       51.3707586945	        0.1133900020	       -0.0180000000	       -0.1252387008	        1.7433624891	       -0.3504921192	        3.5659620809	     -313.9602558319	      -16.5988679365	      589.8608746740	
       15.0401167330	       -0.0164289102	        7.1085418030	       -0.5485508697	        0.1000270247	       -0.0180000000	        0.1600000185	       72.9877930407	      730.0455580361	       51.8861633405	        0.1041763297	       -0.0180000000	       -0.1254222966	        2.2446380029	       -0.2615149507	        4.8665667756	     -316.5394608231	      -13.8757876201	      588.3540882731	
       15.0501166109	        1.6641818109	        7.1460607064	       -1.0608025713	        0.0998775130	       -0.0180000000	        0.1597946536	       79.4545206507	      731.4708512380	       53.0926559611	        0.0949654050	       -0.0180000000	       -0.1257253083	        5.6442693914	       -0.5464247255	       13.7732828164	     -316.9207589019	      -11.5607315332	      582.8767104545	
       15.0601168891	        9.0465571993	        7.0818685917	       -1.7468723264	        0.0997839609	       -0.0180000000	        0.1527774663	       86.1677361749	      728.0029645828	       54.8007265185	        0.0856819157	       -0.0180000000	       -0.1261215411	       16.3601431505	       -3.1859916222	       40.9329372996	     -315.1040089919	       -9.4831665660	      573.4572995583	
       15.0701166873	       22.9882490081	        7.0972339187	       -0.9582776559	        0.0998399618	       -0.0180000000	        0.1285256817	       93.3533646471	      720.0203216019	       56.2996380229	        0.0762334357	       -0.0180000000	       -0.1265341901	       37.6099693885	      -10.3128138219	       93.2546082136	     -311.3224989698	       -7.0064495433	      560.4735357228	
       15.0801170854	       35.1463313713	        7.6612004943	        3.3313074736	        0.1006692075	       -0.0180000000	        0.0931379987	      101.0139706706	      707.3880858510	       56.5723228918	        0.0667587113	       -0.0180000000	       -0.1268931525	       67.0512645638	      -20.7464928450	      163.6182450891	     -305.5883833065	       -3.3097248459	      544.0705395463	
       15.0901168434	       34.9014195390	        9.7046417413	       10.5377301793	        0.1041220528	       -0.0180000000	        0.0618573772	      108.7275404973	      688.7500955237	       54.6198370553	        0.0573609902	       -0.0180000000	       -0.1271483060	       97.1089838701	      -29.5811124516	      233.1181817506	     -297.3680379875	        2.1862300850	      523.4408667666	
